<?xml version="1.0" encoding="UTF-8"?>
<svg version="1.1" viewBox="0 0 700 500" xmlns="http://www.w3.org/2000/svg" fill="white">
 <g>
  <path d="m192.44 69.898c-28.789 0-52.449 23.789-52.449 52.578v314.94c0 28.789 23.66 52.578 52.449 52.578h175.04c4.6445-0.015625 9.0898-1.875 12.363-5.1719 3.2695-3.293 5.0977-7.7539 5.0781-12.395-0.015625-4.6211-1.8594-9.0469-5.125-12.316-3.2695-3.2656-7.6953-5.1094-12.316-5.125h-175.04c-9.8711 0-17.57-7.6953-17.57-17.57v-314.94c0-9.8711 7.6953-17.57 17.57-17.57h314.95c9.8711 0 17.57 7.6953 17.57 17.57v314.94c0 9.8711-7.6953 17.57-17.57 17.57h-17.441c-4.6406-0.019531-9.1016 1.8086-12.398 5.082-3.293 3.2695-5.1523 7.7148-5.168 12.359-0.019531 4.6641 1.8242 9.1445 5.125 12.441 3.2969 3.3008 7.7773 5.1445 12.441 5.125h17.438c28.789 0 52.578-23.789 52.578-52.578v-314.94c0-28.789-23.789-52.578-52.578-52.578zm227.49 385.09c-4.6211 0.015625-9.0469 1.8594-12.312 5.125-3.2695 3.2695-5.1094 7.6953-5.125 12.316-0.019532 4.6406 1.8086 9.1016 5.0781 12.395 3.2695 3.2969 7.7148 5.1562 12.359 5.1719h17.441c4.6641 0.019531 9.1445-1.8242 12.441-5.125 3.3008-3.2969 5.1445-7.7773 5.125-12.441-0.015625-4.6445-1.875-9.0898-5.1719-12.359-3.293-3.2734-7.7539-5.1016-12.395-5.082z"/>
  <path d="m188.82 258.76-43.793 43.793c-3.2969 3.2852-5.1523 7.7461-5.1523 12.402 0 4.6523 1.8555 9.1172 5.1523 12.402 3.2852 3.2969 7.75 5.1523 12.402 5.1523 4.6562 0 9.1172-1.8555 12.402-5.1523l43.664-43.793c7.8086-7.8086 19.965-7.8086 27.773 0l70.016 70.016c21.184 21.184 56.066 21.184 77.25 0l17.57-17.57c8.4609-8.4609 21.531-8.9492 30.617-1.1641l94.301 80.867c3.5273 3.0156 8.1094 4.5078 12.738 4.1445 4.625-0.36328 8.918-2.5508 11.934-6.082 3.0156-3.5273 4.5039-8.1094 4.1406-12.738-0.36328-4.625-2.5508-8.918-6.0781-11.934l-94.301-80.738c-22.723-19.477-56.992-18.191-78.156 2.9688l-17.438 17.441c-7.8086 7.8086-19.965 7.8086-27.773 0l-70.016-70.016c-21.184-21.184-56.066-21.184-77.25 0z"/>
  <path d="m472.43 192.44c0 9.2812-3.6875 18.184-10.254 24.746-6.5625 6.5664-15.465 10.254-24.746 10.254s-18.184-3.6875-24.75-10.254c-6.5625-6.5625-10.25-15.465-10.25-24.746s3.6875-18.184 10.25-24.75c6.5664-6.5625 15.469-10.25 24.75-10.25s18.184 3.6875 24.746 10.25c6.5664 6.5664 10.254 15.469 10.254 24.75z"/>
 </g>
</svg>
